<svg xmlns="http://www.w3.org/2000/svg" width="100" height="100" viewBox="0 0 100 100">
  <circle cx="50" cy="50" r="45" fill="white"/>
  <path d="M50 25C50 25 35 35 35 50C35 65 50 75 50 75C50 75 65 65 65 50C65 35 50 25 50 25Z" fill="#2563EB"/>
  <circle cx="50" cy="50" r="15" fill="#FBBF24"/>
  <path d="M30 55C30 55 25 60 25 65C25 70 30 75 35 75" stroke="#0EA5E9" stroke-width="3" stroke-linecap="round" fill="none"/>
  <path d="M70 55C70 55 75 60 75 65C75 70 70 75 65 75" stroke="#0EA5E9" stroke-width="3" stroke-linecap="round" fill="none"/>
</svg>
